<svg id="Calque_1" data-name="Calque 1" xmlns="http://www.w3.org/2000/svg" viewBox="0 0 58.75 51.22"><defs><style>.cls-1{fill:none;stroke:#494848;stroke-linecap:round;stroke-linejoin:round;stroke-width:2px;}</style></defs><title>JourneÌe</title><path class="cls-1" d="M2019.32,1424.31c0,7-9,13-9,13s-9-6-9-13a9,9,0,0,1,18,0Z" transform="translate(-2000.32 -1414.31)"/><circle class="cls-1" cx="10" cy="10" r="3"/><path class="cls-1" d="M2058.07,1444c0,7-9,13-9,13s-9-6-9-13a9,9,0,1,1,18,0Z" transform="translate(-2000.32 -1414.31)"/><circle class="cls-1" cx="48.75" cy="29.7" r="3"/><path class="cls-1" d="M2013.07,1441.33s13.49-1.62,17.13,0,3.65,6.2-3.37,12.14,3.64,16.86,20.24,7.28" transform="translate(-2000.32 -1414.31)"/></svg>